<svg width="32" height="31" viewBox="0 0 32 31" fill="none" xmlns="http://www.w3.org/2000/svg">
<path d="M4.54195 3.39088C5.72662 2.36538 7.16054 2.23832 8.59388 2.14084C9.87022 2.05426 11.1676 2.11899 12.4261 1.92808C14.0518 1.68127 15.6427 1.21627 17.2601 0.906835C18.098 0.746281 18.9624 0.63517 19.8136 0.649877C21.0094 0.670031 21.547 1.26223 21.6442 2.45226C21.661 2.65403 21.6797 2.8595 21.6639 3.06086C21.5566 4.49056 21.6586 5.89479 22.0171 7.29533C22.3139 8.45327 22.1091 8.91065 21.0006 9.31049C20.0468 9.65428 19.736 10.2564 19.6511 11.2075C19.5053 12.8426 19.4591 14.4565 19.9467 16.0454C20.0651 16.4316 20.227 16.8153 20.4323 17.1628C21.1051 18.3001 22.1077 18.8162 23.4167 18.633C24.1837 18.5262 24.9418 18.3626 25.7043 18.2297C27.809 17.8629 29.4495 18.5721 30.5104 20.4307C31.1693 21.5837 31.2477 22.8739 30.8895 24.1366C30.0165 27.215 28.093 29.296 24.881 29.7665C21.8708 30.2073 18.8272 30.4823 15.7877 30.6426C13.0629 30.7853 11.3531 29.5281 10.4237 26.9433C10.1053 26.0572 9.9092 25.1078 9.79889 24.172C9.53711 21.95 9.41974 19.7118 9.12887 17.4946C8.90073 15.7518 8.50136 14.0299 8.18145 12.2988C8.11301 11.9308 7.92016 11.7827 7.53021 11.7501C6.28614 11.6467 5.76008 11.1381 5.54832 9.89954C5.40851 9.08143 5.28459 8.26146 5.15523 7.44181C5.08917 7.02192 4.86625 6.92859 4.44347 6.95206C2.79501 7.04386 1.46894 6.40854 0.597754 4.96898C-0.0724116 3.86085 0.306157 2.90428 1.51926 2.48443C2.4007 2.17927 3.2134 2.32825 3.95443 2.89666C4.14331 3.03875 4.31686 3.20046 4.54195 3.39088ZM4.26486 5.77901C4.17153 5.36296 4.10064 5.00398 4.00606 4.65167C3.97815 4.54981 3.89966 4.41656 3.81241 4.38328C3.39413 4.22422 2.97149 4.05593 2.53584 3.97383C2.38008 3.94467 2.11 4.10699 2.0264 4.25692C1.95971 4.37632 2.04143 4.66817 2.15647 4.78645C2.72635 5.3713 3.45625 5.62923 4.26486 5.77901Z" fill="#E8DAAF"/>
</svg>
