<svg width="18" height="41" viewBox="0 0 18 41" fill="none" xmlns="http://www.w3.org/2000/svg">
<path d="M16.7421 7.18763C16.8387 7.65315 16.9855 8.11512 17.0249 8.58608C17.1651 10.2611 16.1477 11.5103 14.5057 11.7281C13.0547 11.9205 11.7262 10.8282 11.398 9.29865C11.2215 8.47302 10.9304 7.65337 10.5567 6.89661C10.0582 5.88809 9.24865 5.61852 8.09287 5.90845C6.82342 6.22638 6.30859 6.81376 6.24634 7.97626C6.17362 9.33293 6.71725 10.543 7.13971 11.7769C7.99383 14.2742 8.87503 16.7631 9.74432 19.2552C10.9991 22.8528 12.256 26.4486 13.506 30.0474C14.3328 32.4287 15.1728 34.8064 15.9621 37.2001C16.4212 38.5946 15.5922 40.1181 14.227 40.5358C12.5587 41.0457 11.093 40.3692 10.5791 38.8845C9.00618 34.3473 7.41218 29.8171 5.8393 25.2799C4.4214 21.1927 3.04454 17.0919 1.5987 13.0146C0.996354 11.3141 0.524258 9.60456 0.61694 7.78445C0.765265 4.86288 2.06576 2.57098 4.83553 1.27814C7.62579 -0.0238943 10.4634 -0.244667 13.1293 1.51168C14.9634 2.72043 15.9105 4.55085 16.5461 6.56105C16.6121 6.76931 16.6606 6.98351 16.7171 7.19433C16.7263 7.19063 16.7334 7.18871 16.7421 7.18763Z" fill="#E8DAAF"/>
</svg>
