<svg width="42" height="46" viewBox="0 0 42 46" fill="none" xmlns="http://www.w3.org/2000/svg">
<path d="M18.0169 42.6562C15.8034 41.5873 14.9381 39.7662 14.7689 37.5527C14.7176 36.8857 14.6925 36.2138 14.5827 35.5516C14.3966 34.4324 13.8053 34.0875 12.741 34.4817C11.9013 34.7929 11.0979 35.1852 10.2671 35.5181C8.5357 36.21 6.82348 36.1114 5.15928 35.0449C4.52111 34.6366 3.84701 34.2592 3.28277 33.765C1.17317 31.9164 1.74998 28.1761 4.24746 27.3227C5.01848 27.0586 5.81323 27.1059 6.52689 27.536C7.48055 28.1119 8.37746 28.0418 9.25535 27.6109C10.9753 26.7661 12.3116 25.5011 13.3014 23.9165C13.8189 23.0881 14.224 22.188 14.6585 21.3091C14.9749 20.6691 14.8967 19.9925 14.4884 19.3912C13.8335 18.4253 13.1653 17.4567 12.4023 16.5678C11.2788 15.261 10.9134 13.7028 11.5716 12.4785C12.6295 10.5098 15.2868 10.1996 17.0776 11.8379C17.9653 12.6493 18.8643 13.4509 19.7289 14.2854C20.0575 14.6033 20.3569 14.642 20.7058 14.4546C21.0563 14.2668 21.1838 13.9916 21.0474 13.5766C20.5957 12.21 20.5524 10.8589 21.0271 9.54007C21.8722 7.19127 24.1903 5.61402 26.754 5.64106C29.3075 5.66709 31.7451 7.25113 32.8497 9.60282C34.5853 13.2963 32.661 17.3165 28.7447 18.1523C28.334 18.2396 28.1758 18.4586 28.1691 18.8307C28.1614 19.2226 28.3039 19.4989 28.7463 19.6337C29.8401 19.966 30.933 20.3068 32.0123 20.689C33.1215 21.0825 33.9202 21.8031 34.2435 22.9387C34.9557 25.4342 32.7847 27.645 30.1972 27.0816C29.5009 26.9299 28.7894 26.8683 28.0852 26.7577C26.5024 26.5095 25.3072 26.9686 24.4803 28.2874C23.3062 30.1581 22.3332 32.0982 22.2202 34.3772C22.193 34.924 22.2569 35.4892 22.354 36.0372C22.4643 36.6527 22.8457 37.134 23.3965 37.4969C25.1553 38.6562 25.5021 40.6342 24.2186 42.1339C22.6698 43.9416 20.6506 44.2191 18.4712 42.9226C18.319 42.8351 18.168 42.7457 18.0169 42.6562Z" fill="#E8DAAF"/>
</svg>
