<svg width="40" height="40" viewBox="0 0 40 40" fill="none" xmlns="http://www.w3.org/2000/svg">
<g clip-path="url(#clip0)">
<path d="M20.0295 40.0591C31.0916 40.0591 40.0591 31.0916 40.0591 20.0295C40.0591 8.96753 31.0916 0 20.0295 0C8.96753 0 0 8.96753 0 20.0295C0 31.0916 8.96753 40.0591 20.0295 40.0591Z" fill="#F7C408"/>
</g>
<path d="M29.2466 15.8938C29.8374 15.8938 30.3101 15.4212 30.3101 14.8303V9.45365C30.3101 8.86281 29.8374 8.39014 29.2466 8.39014C28.6557 8.39014 28.183 8.86281 28.183 9.45365V13.7668H25.7606V9.45365C25.7606 8.86281 25.2879 8.39014 24.6971 8.39014C24.1062 8.39014 23.6336 8.86281 23.6336 9.45365V13.7668H21.2111V9.45365C21.2111 8.86281 20.7384 8.39014 20.1476 8.39014C19.5568 8.39014 18.9068 8.80373 18.9068 9.39457V13.7077H16.4844V9.39457C16.4844 8.80373 16.0117 8.33105 15.4209 8.33105C14.83 8.33105 14.3573 8.80373 14.3573 9.39457V13.7077H11.9349V9.39457C11.9349 8.80373 11.4622 8.33105 10.8714 8.33105C10.2805 8.33105 9.80786 8.80373 9.80786 9.39457V23.2794C9.80786 28.9514 14.4164 33.6191 20.1476 33.6191C25.8788 33.6191 30.4873 29.0105 30.4873 23.2794V20.207C30.4873 19.1435 29.6011 18.2572 28.5376 18.2572H18.9068V31.3148C18.0206 31.1966 17.1934 30.9603 16.4844 30.5467V15.7757H29.2466V15.8938ZM21.0929 20.4433H28.183V23.2794C28.183 27.4153 25.1107 30.8421 21.0929 31.3739V20.4433ZM14.2983 29.0696C12.8212 27.5925 11.8758 25.5246 11.8758 23.2794V15.8938H14.2983V29.0696Z" fill="#030509"/>
<defs>
<clipPath id="clip0">
<rect width="40" height="40" fill="white"/>
</clipPath>
</defs>
</svg>
