<svg width="222" height="122" viewBox="0 0 222 122" fill="none" xmlns="http://www.w3.org/2000/svg">
<g clip-path="url(#clip0)">
<path d="M116.749 65.014C116.256 64.3415 115.435 63.9144 115.262 63.007C113.939 60.858 114.226 58.8627 116.095 57.2074C118.769 54.8398 123.183 54.4643 126.105 56.3519C129.178 58.3394 130.625 62.4419 129.592 65.9575C128.604 69.324 126.832 72.2872 124.902 75.1419C121.721 79.8448 123.293 83.1622 127.594 85.875C130.855 87.9324 134.554 88.7676 138.379 88.841C140.339 88.8798 142.071 88.0545 143.706 86.9389C148.01 84.0041 150.766 79.79 153.426 75.4787C155.742 71.7243 157.813 67.8272 160.14 64.0818C162.133 60.8676 164.735 58.3014 168.224 56.6852C173.504 54.2393 179.024 53.247 184.813 53.762C185.607 53.9457 186.197 54.3944 186.537 55.1446C186.694 55.4968 186.882 56.1352 186.628 56.2121C184.53 56.8447 185.85 59.0513 184.752 60.1333C184.311 60.5698 184.617 61.0295 184.903 61.5022C185.525 62.535 184.886 63.0706 183.986 62.8659C183.064 62.6584 183.598 63.3476 183.384 63.5453C183.244 63.6749 182.868 63.868 183.49 64.1233C184.351 64.478 184.075 63.7744 184.225 63.5262C184.484 63.098 184.786 62.8107 185.302 62.9561C185.979 63.1447 185.932 63.6494 185.804 64.179C185.932 63.8004 185.831 63.4048 185.875 63.0195C186.021 61.6838 187.079 61.3318 188.099 61.4626C189.303 61.6161 188.97 62.6734 188.787 63.4591C188.462 64.8616 187.801 66.1914 187.936 67.7864C188.034 67.1178 188.58 66.8685 188.663 66.1052C188.817 64.6814 190.71 66.1934 191.548 65.1216C191.704 64.9206 192.318 65.7668 192.049 66.2517C191.481 67.2757 192.336 66.6548 192.564 66.7451C192.742 66.8136 192.883 66.9511 193.065 67.0124C192.958 66.8753 192.81 66.7602 192.739 66.6122C192.238 65.5749 191.151 64.3876 193.377 64.0068C193.859 63.9236 193.857 63.4746 193.956 63.1117C194.298 61.8545 194.955 62.2379 195.776 62.8235C194.222 61.8141 195.604 60.2181 194.831 59.0968C195.77 58.641 194.83 57.147 195.927 57.0049C195.694 57.1964 195.267 57.36 194.999 56.8121C194.805 56.4128 195.117 56.0802 195.467 55.88C196.187 55.4744 196.959 55.671 197.724 55.712C203.541 57.0893 208.853 59.332 212.538 64.3512C214.119 66.5053 214.854 68.8713 214.201 71.5367C213.818 73.0944 213.068 74.3705 211.397 74.8591C207.269 76.2605 204.614 74.4061 204.544 69.8713C201.664 70.9987 199.948 73.1991 198.435 75.6298C198.155 75.8542 197.872 75.8268 197.548 75.6937C196.396 75.2215 196.383 75.2315 196.484 76.3195C196.555 77.0865 196.172 77.5496 195.504 77.1724C194.697 76.7239 194.306 76.8493 193.57 77.4155C191.919 78.6802 192.181 76.5426 191.524 76.074C192.15 77.5754 193.085 78.9528 193.813 80.4398C194.319 81.4737 194.233 82.5074 193.332 83.1884C192.444 83.8594 191.385 84.5942 190.057 83.1099C190.619 83.8762 190.947 84.385 190.306 84.9011C189.511 85.541 189.048 84.8799 188.549 84.5046C188.393 84.2375 188.332 84.787 188.471 84.5722C188.528 84.4865 188.582 84.5164 188.637 84.6664C188.762 84.9991 189.912 85.0261 190.204 85.1282C191.806 85.691 191.636 83.5075 192.867 83.502C193.378 83.4998 193.81 82.6753 194.407 83.2216C194.866 83.6384 194.588 84.1918 194.445 84.6614C193.82 86.6997 193.273 88.7632 192.817 90.8457C191.54 94.3309 189.904 97.6245 187.64 100.585C186.179 101.258 185.21 99.4081 183.773 99.8252C183.548 99.89 183.323 99.3359 183.428 99.2678C184.973 98.2955 182.373 96.8001 183.861 95.9097C184.254 95.6762 184.648 95.524 184.867 94.9749C183.753 95.1922 182.517 95.7077 182.305 93.8942C182.281 93.6899 181.721 93.8022 181.409 93.8252C181.228 93.8453 181.052 93.835 180.874 93.8013C179.954 93.3619 180.113 92.7047 180.613 92.1016C181.319 91.2493 180.591 91.2245 179.966 90.9611C179.976 92.092 180.479 93.8063 178.334 92.5453C177.872 92.2751 177.552 92.8001 177.206 93.0588C176.131 93.8613 175.781 93.284 175.597 92.2437C175.555 91.9909 176.157 91.6015 175.479 91.4862C175.293 91.4554 175.102 91.4702 174.948 91.3351C174.743 91.7428 175.012 92.0664 175.17 92.3801C175.567 93.1722 175.934 93.9219 174.787 94.4059C174.668 94.4569 174.503 94.5137 174.486 94.6199C174.178 96.3185 173.794 97.8143 171.823 95.809C171.795 95.7824 171.58 95.8949 171.51 95.9906C171.277 96.3136 171.792 96.2809 171.775 96.5109C173.68 96.2412 173.619 97.7654 173.975 98.9122C174.089 99.054 174.178 99.2082 174.259 99.3691C174.49 99.9665 174.207 100.562 173.704 100.565C172.414 100.575 172.69 101.248 173.036 101.766C173.052 101.478 173.234 100.982 173.731 100.75C174.392 100.442 174.638 100.952 174.862 101.421C175.01 101.729 175.217 101.96 175.566 101.984C176.988 102.091 177.998 102.341 176.573 103.963C176.343 104.228 177.291 104.601 177.028 105.187C177.313 104.956 177.884 104.717 177.886 104.578C177.903 102.724 179.73 103.218 180.519 102.937C181.51 102.588 180.801 103.97 180.922 104.646C181.016 104.295 181.598 104.371 181.429 103.955C180.964 102.81 180.744 101.812 182.482 101.711C182.607 101.703 182.707 101.611 182.79 101.509C183.891 100.122 183.847 100.256 184.561 100.484C185.433 100.759 186.508 100.2 187.269 101.076C187.29 101.098 187.232 101.191 187.213 101.251C184.586 105.168 181.414 108.371 176.562 109.373C174.935 109.89 173.41 109.368 171.882 108.899C154.062 103.712 136.215 98.6181 118.428 93.3228C117.061 92.6499 115.373 92.4438 114.648 90.8025C113.69 90.0488 112.739 89.2923 112.251 88.1175C111.382 86.671 113.287 85.8518 113.082 84.5111C113.042 84.2469 113.64 84.3484 113.9 84.5006C114.441 84.8193 114.83 84.7672 115.17 84.2099C115.34 83.9331 115.623 83.7439 115.978 83.9699C116.336 84.2001 116.584 84.6023 116.414 84.9448C115.868 86.0336 116.865 85.4535 117.059 85.6053C116.553 84.4476 115.868 83.2986 115.228 82.1281C114.419 80.6426 114.544 78.9831 115.442 78.3212C116.887 77.2514 117.966 77.4088 119.609 78.9438C119.682 78.6938 119.465 78.6087 119.34 78.4888C119.003 78.1567 118.296 77.9295 118.759 77.3178C119.06 76.9182 119.573 77.1483 119.98 77.3885C120.196 77.516 120.429 77.6339 120.728 77.5628C119.619 77.5873 119.966 76.6014 119.671 76.0464C118.942 75.9674 118.791 77.1864 118.102 76.8416C117.264 76.4241 118.105 75.546 117.801 74.9434C117.404 74.7432 117.033 74.9291 116.658 74.956C116.119 74.9935 115.602 74.9562 115.385 74.3644C115.211 73.8941 115.358 73.3707 115.768 73.1819C116.568 72.8172 116.187 72.178 116.269 71.6427C118.069 69.9246 120.626 69.2407 122.221 67.2419C122.492 66.9003 122.815 66.6001 123.115 66.2776C123.881 65.2472 124.044 63.9677 124.492 63.0061C124.637 62.5908 124.203 62.7225 124.456 62.7385C125.259 62.788 123.351 64.7209 121.601 65.629L121.618 65.6195C119.865 66.3377 118.238 66.2011 116.749 65.014Z" fill="#A20003"/>
<path d="M114.637 90.832C115.728 91.7299 117.045 92.2147 118.288 92.8296C117.751 94.8441 115.662 95.0329 114.343 96.1455C118.697 98.2151 170.076 112.377 173.514 112.448C172.992 111.111 171.711 110.054 172.053 108.425C173.489 109.041 175.057 109.031 176.547 109.402C176.18 109.859 176.402 110.22 176.743 110.556C177.418 111.232 178.06 111.942 178.775 112.577C181.144 114.682 182.828 114.419 184.598 111.668C184.909 111.185 185.122 110.658 185.755 110.482C187.302 110.051 188.528 111.109 188.102 112.669C187.335 115.475 185.236 116.958 182.56 117.662C179.701 118.413 176.869 118.007 174.058 117.278C169.557 116.115 165.047 114.981 160.544 113.833L160.534 113.824C156.108 112.643 151.679 111.489 147.264 110.278C131.65 105.985 116 101.798 100.738 96.3258C96.2124 94.703 91.8841 92.7062 88.7765 88.7337C86.47 85.7854 85.1736 82.4598 84.478 78.8453C84.3742 78.7783 84.3332 78.7035 84.3517 78.6169C84.3712 78.5226 84.3959 78.4792 84.4264 78.483C84.4431 75.518 84.8537 72.6523 86.2805 69.9826C90.6677 61.7702 102.951 60.768 107.933 68.2424C111.536 73.6459 108.302 82.5705 102.353 83.6488C98.9139 84.2732 95.2925 82.5965 93.724 79.6549C92.2275 76.8498 92.8375 73.096 95.1608 70.8086C97.5288 68.4726 102.034 69.1064 103.408 71.962C104.217 73.6447 104.021 75.2452 102.783 76.5882C101.554 77.9169 99.992 78.3107 98.2455 77.6099C97.8401 77.4473 97.4358 77.2771 97.0052 77.0998C97.2699 78.6414 97.8017 79.2181 99.4339 79.8118C100.892 80.3452 102.191 80.0696 103.365 79.09C105.455 77.346 106.29 74.0224 105.296 71.4076C104.232 68.6061 101.226 66.6771 98.0158 66.7343C92.1455 66.8398 87.6488 71.7659 88.2448 77.6427C88.8375 83.4532 91.7958 87.7553 96.9279 90.5986C102.042 93.4319 107.288 94.4867 112.881 92.1339C113.555 91.8426 114.39 91.7297 114.637 90.832Z" fill="#584F21"/>
<path d="M211.388 74.8732C214.91 72.0966 214.279 67.8673 212.509 65.1134C210.084 61.3457 206.423 59.2424 202.414 57.6645C200.831 57.0422 199.262 56.2861 197.517 56.1619C196.747 55.7567 195.93 55.7944 195.106 55.893C194.772 55.9017 194.456 55.8315 194.148 55.7197C191.094 55.0498 187.953 54.926 184.906 54.2298C177.726 53.8552 170.919 54.9312 164.975 59.3601C162.075 61.5255 160.367 64.6167 158.598 67.6461C155.191 73.4815 152.103 79.5266 147.434 84.5243C141.373 91.0198 129.94 90.6268 124.215 83.7447C122.149 81.2596 122.147 78.416 124.217 75.2693C125.863 72.7623 127.503 70.2506 128.581 67.4254C129.702 64.4779 129.799 61.7085 127.967 58.8694C125.609 55.2145 120.524 54.9767 117.567 56.6322C115.126 57.9997 114.461 59.8047 115.265 63.0111C113.266 61.602 112.912 59.5657 113.465 57.4256C114.026 55.2478 115.653 53.8912 117.787 53.2476C122.896 51.7089 127.175 52.9181 130.47 57.2195C132.186 59.0073 132.556 61.2274 132.465 63.5758C132.342 66.8332 131.298 69.8136 129.634 72.5891C129.111 73.4641 128.646 74.3695 128.218 75.2911C126.574 79.1523 126.809 80.8991 129.297 83.1041C131.811 85.0338 134.66 85.9605 137.825 85.9248C139.618 86.0356 141.184 85.418 142.633 84.4377C143.367 84.1344 143.9 83.5818 144.413 83.0034C145.767 81.6322 146.939 80.1107 148.012 78.5111C149.071 77.0297 150.039 75.4945 150.857 73.8632C153.554 69.4752 156.06 64.9746 159.081 60.7779C162.476 56.0591 167.049 53.2003 172.512 51.5743C173.123 51.3911 173.711 51.1431 174.327 50.9761C178.048 50.2086 181.812 49.9611 185.6 49.9564C192.636 50.584 199.441 52.1111 205.878 55.0974C208.312 56.4291 210.945 57.4684 212.819 59.6627C214.338 61.3602 215.882 63.0377 216.412 65.3629C217.135 68.5398 216.618 72.6997 213.182 74.4464C212.601 74.7301 212.068 75.0699 211.388 74.8732Z" fill="#FCA305"/>
<path d="M185.218 50.408C181.445 50.6041 177.668 50.7649 173.953 51.5524C169.953 50.374 165.967 50.6288 161.889 51.3169C158.91 51.8168 156.106 50.5667 153.538 49.0984C151.884 48.1538 152.072 44.9587 153.756 43.025C155.115 39.5888 157.671 37.6398 161.273 37.02C162.055 36.8852 162.675 36.6954 163.072 35.8628C163.397 35.1798 164.03 34.6628 164.928 34.7822C166.534 36.4944 168.796 37.3754 170.334 39.2224C171.582 40.7238 173.805 40.4549 174.93 38.8153C175.686 37.714 176.306 36.5223 176.773 35.2573C177.376 33.6109 177.093 33.0573 175.546 32.2112C174.423 31.5996 172.965 31.9985 172.011 30.9592C171.064 28.4391 171.632 27.6935 174.691 27.4241C177.839 26.6513 180.232 28.3763 182.568 29.9705C184.587 31.3472 186.112 33.2623 187.176 35.5029C187.548 36.8025 188.234 38.0987 187.216 39.4111C186.995 39.9173 186.914 40.6269 186.529 40.8923C184.755 42.1261 185.567 43.2175 186.575 44.3486C187.181 44.2692 187.661 44.6346 188.188 44.82C188.707 45.0006 189.431 45.0597 189.494 45.7367C189.567 46.5157 188.957 46.9698 188.343 47.3344C186.778 48.2577 185.09 48.5468 183.375 48.2717C184.096 48.8526 185.137 49.16 185.479 50.2393C185.487 50.2673 185.44 50.335 185.399 50.3531C185.347 50.3931 185.277 50.396 185.218 50.408Z" fill="#F3F3F3"/>
<path d="M153.756 43.0252C152.264 49.1798 152.311 48.2071 157.438 50.1561C159.607 50.979 161.891 50.9962 164.192 50.4739C167.552 49.7119 170.87 49.6642 173.954 51.5526C170.753 52.6206 167.573 53.7106 164.777 55.6916C161.642 57.9129 159.41 60.9273 157.387 64.0992C155.301 67.3716 153.323 70.7116 151.298 74.0187C151.117 73.9536 150.912 73.8856 150.821 73.7157C148.241 68.9848 146.641 64.0315 147.334 58.5473C147.782 57.7828 147.819 56.9866 147.563 56.1464C147.033 54.4092 147.076 52.6003 147.05 50.8177C147.022 49.0231 147.494 47.3758 149.195 46.3882C149.862 46.003 150.003 45.4559 149.842 44.7589C149.999 43.1922 150.653 42.1634 152.436 42.3504C152.876 42.5791 153.316 42.8003 153.756 43.0252Z" fill="#DC3147"/>
<path d="M150.194 44.884C150.588 45.4165 151.307 46.1675 150.214 46.4648C147.671 47.162 147.605 49.1537 147.581 51.1236C147.558 52.9506 147.717 54.7846 148.143 56.5861C148.305 57.2754 148.673 58.1066 147.659 58.5452C145.918 59.8219 144.525 58.5538 143.04 57.9281C142.055 57.2021 141.281 57.5083 140.594 58.3977C139.967 59.2094 139.325 60.0502 139.123 61.0502C138.277 65.3047 137.591 69.5752 138.616 73.9037C139.044 75.7171 139.815 77.3836 140.949 78.8785C141.44 79.5276 142.053 80.1377 141.98 81.0648C141.485 82.2217 140.513 82.0699 139.552 81.9543C137.509 81.3056 136.809 79.3153 135.526 77.9024C131.99 71.6522 131.532 65.104 133.745 58.3466C134.145 57.1274 134.448 55.7183 135.849 55.0918C136.845 54.206 137.841 53.3165 138.837 52.4307C139.808 51.9673 140.095 51.1867 140.117 50.1335C140.169 47.4746 141.025 45.171 143.406 43.6644C144.416 43.1634 145.417 42.6071 146.575 42.5345C148.138 42.4388 149.536 43.3631 150.194 44.884Z" fill="#F7FBFB"/>
<path d="M185.219 50.4082C184.704 49.1991 183.215 49.1029 182.437 47.8573C183.738 47.756 184.976 48.0647 186.156 47.7279C187.387 47.3743 188.554 46.9198 189.383 45.6032C188.234 45.4216 187.242 45.2169 186.579 44.3569C188.472 42.5112 191.026 42.3492 193.387 41.784C194.91 41.4202 196.523 41.3849 198.1 41.3026C198.883 41.2607 199.467 41.136 199.6 40.2551C199.275 39.1082 198.79 38.0267 198.257 36.9662C198.206 36.8129 198.159 36.6601 198.109 36.5068C198.618 35.1195 199.003 34.9816 199.969 35.8871C200.34 36.2312 200.717 36.6261 200.776 37.148C200.906 38.3092 201.362 39.3369 201.884 40.3651C202.177 40.9391 202.354 41.5995 201.506 41.9466C201.34 43.1599 202.377 43.0027 203.017 43.2332C203.976 43.5769 205.073 43.16 206.014 43.7066C207.955 46.9846 207.563 50.5141 207.131 54.0426C207.046 54.7321 206.884 55.4431 206.044 55.6636C199.396 52.7517 192.417 51.1371 185.219 50.4082Z" fill="#DF2D43"/>
<path d="M186.744 35.5615C184.631 32.146 181.985 29.3721 178.03 28.0794C176.929 27.722 175.812 27.587 174.687 27.4315C175.979 25.3409 178.189 25.2715 180.239 25.0893C181.811 24.9522 183.436 25.1116 185.009 25.3383C188.198 25.7929 191.34 25.8548 194.529 25.1915C197.492 24.5736 200.129 26.1047 202.876 26.8486C203.183 26.9332 203.486 27.0173 203.792 27.1057C204.541 27.7133 204.7 28.4526 204.305 29.3242C201.701 30.4162 198.926 30.0593 196.226 30.18C193.775 30.2891 191.833 30.8174 190.413 33.0586C189.634 34.2808 188.698 35.8046 186.744 35.5615Z" fill="#DB3147"/>
<path d="M206.044 55.6638C207.403 51.6123 207.315 47.6208 205.58 43.6875C204.962 42.7751 203.937 42.9029 203.044 42.6796C202.327 42.5015 201.316 42.7588 201.172 41.5842C202.41 41.4596 201.631 40.6935 201.431 40.4094C200.743 39.4342 200.365 38.4007 200.397 37.2131C200.419 36.3494 199.737 36.0132 199.133 35.706C198.344 35.306 198.53 36.331 198.113 36.5037C197.943 35.9176 197.894 35.3158 198.5 34.9812C199.119 34.6403 199.667 35.0528 200.003 35.4931C201.421 37.3482 202.875 37.1926 204.548 35.8145C205.617 34.934 206.609 35.1386 207.427 36.3623C208.374 37.7682 209.553 38.8084 211.425 38.9677C212.688 39.0745 212.886 40.1243 211.976 41.191C210.861 42.5029 209.201 42.602 207.301 43.1355C211.953 47.8418 214.201 53.1928 212.82 59.6593C210.557 58.3255 208.301 56.9927 206.044 55.6638Z" fill="#D2253E"/>
<path d="M187.197 101.28C186.209 100.701 185.204 100.073 184.888 101.929C184.202 101.534 184.557 100.391 183.593 100.155C182.992 100.536 183.413 101.069 183.461 101.488C183.528 102.073 183.398 102.405 182.796 102.299C180.687 101.932 181.549 103.057 181.948 103.95C182.099 104.29 182.263 104.624 182.511 105.15C181.686 105.159 180.613 103.989 180.477 106.077C180.025 104.732 181.121 104.041 180.524 103.084C179.862 103.431 179.6 105.352 178.077 103.414C178.869 105.378 176.717 105.508 177.123 106.978C175.888 106.295 177.91 103.881 175.31 104.571C175.524 103.874 176.054 103.878 176.412 103.641C176.758 103.409 177.007 103.088 176.825 102.686C176.665 102.326 176.29 102.473 175.981 102.535C174.786 102.781 174.247 102.168 174.245 101.004C173.109 101.423 173.177 102.283 172.995 103.216C173.155 101.615 172.14 100.723 171.079 99.6466C172.148 99.447 172.391 100.452 173.021 100.484C173.817 100.521 174.203 100.124 173.913 99.2873C174.408 98.8228 175.115 98.9533 175.812 98.5719C175.075 97.8148 174.607 97.0642 176.229 96.8676C176.826 96.7948 176.499 96.286 176.355 95.978C176.2 95.6415 176.024 95.2174 175.599 95.2148C175.027 95.2132 175.109 95.7069 175.178 96.0483C175.453 97.4132 174.481 98.2671 173.92 99.2921C173.442 99.2133 172.865 98.9366 173.001 98.497C174.077 95.0409 171.919 97.9291 171.38 97.6571C170.936 96.4684 171.076 95.4375 172.185 94.6431C172.719 94.9494 172.378 95.4524 172.464 95.8499C172.563 96.3265 172.887 96.4596 173.3 96.4413C173.801 96.4186 173.955 96.0585 173.867 95.6453C173.679 94.7593 173.527 93.9899 174.846 93.9025C175.411 93.8645 175.313 93.3146 174.996 93.0625C174.215 92.4392 174.525 91.5648 174.322 90.6498C175.166 91.7644 175.832 90.6403 176.507 90.5308C176.89 91.2438 176.189 91.3771 176.077 91.7733C175.949 92.2177 175.796 92.7325 176.197 93.0222C176.786 93.4475 176.898 92.827 177.106 92.4584C178.11 90.707 178.794 92.4245 179.568 92.8187C180.114 91.7956 178.923 91.4154 178.991 90.654C180.22 89.7896 180.986 91.2156 182.083 91.2669C181.837 92.126 180.345 92.0488 180.615 93.2081C180.655 93.3794 181.003 93.4807 181.207 93.6105C181.715 94.8768 179.705 94.9556 180.023 96.1286C181.753 95.7519 181.953 95.328 181.199 93.6134C182.838 92.6877 183.438 93.1568 183.005 95.1764C183.721 93.7104 185.025 95.1414 185.87 94.3181C185.21 95.207 185.116 96.6498 183.298 96.3618C185.337 97.2962 184.937 98.3335 183.588 99.3804C184.544 99.9712 184.872 98.7626 185.715 98.9835C185.269 100.731 186.664 100.409 187.641 100.604C187.629 100.924 187.513 101.168 187.197 101.28Z" fill="#B41017"/>
<path d="M127.317 44.7389C119.991 44.9534 112.663 44.8969 105.331 44.8361C97.8692 44.7707 90.4121 44.6015 82.9598 44.2703C67.7741 43.5963 52.6337 42.3709 37.5913 40.1094C34.5001 39.6437 31.4166 39.117 28.3292 38.6209C28.1526 38.7343 27.9969 38.7111 27.8615 38.555C27.878 38.236 28.0836 38.0758 28.3593 37.9747C29.352 37.8313 30.4151 38.2111 31.3551 37.5891C31.5589 37.599 31.747 37.6417 31.9352 37.7154C33.5177 38.0554 35.1306 38.1515 36.7317 38.3739C42.5942 39.6987 48.5692 40.3374 54.5308 40.8352C62.9658 41.5399 71.397 42.4299 79.8755 42.5986C81.6621 42.6351 83.4038 43.1264 85.1965 43.0205C85.9027 42.942 86.6093 42.9835 87.3089 43.0821C92.6408 43.2616 97.9768 43.2831 103.303 43.5394C104.413 43.6039 105.523 43.3861 106.632 43.5588C113.029 43.6039 119.425 43.3743 125.822 43.6361C126.411 43.8795 127.305 43.7199 127.317 44.7389Z" fill="#6F3130"/>
<path d="M135.845 55.0874C131.984 62.2782 131.964 69.529 135.508 76.8361C135.674 77.1779 135.808 77.5311 135.959 77.8786C135.819 78.3215 135.46 78.4975 135.051 78.6129C133.284 78.8845 131.504 78.9222 129.719 78.9052C128.347 78.0499 127.841 76.7375 127.785 75.1948C128.099 73.5743 129.25 72.3789 129.953 70.9577C132.186 66.4386 132.756 61.8868 130.459 57.2143C131.972 55.7778 133.413 54.1775 135.845 55.0874Z" fill="#EA4450"/>
<path d="M172.011 30.9631C173.576 31.1926 175.172 31.2673 176.559 32.1864C177.581 32.8629 178.019 33.5749 177.48 34.8889C176.902 36.3063 176.205 37.6471 175.472 38.9717C174.269 41.147 171.318 41.3526 169.763 39.3951C169.044 38.4857 168.31 37.6671 167.177 37.2322C166.054 36.8024 165.367 35.8891 164.928 34.7861C165.622 33.3444 166.754 32.5105 168.259 33.2933C170.166 34.2849 171.042 33.5582 171.621 31.8237C171.72 31.5266 171.879 31.2484 172.011 30.9631Z" fill="#FBDECB"/>
<path d="M116.254 71.6719C116.453 72.2498 117.757 72.8994 116.121 73.3651C115.74 73.4725 115.523 73.875 115.668 74.2991C115.793 74.6628 116.159 74.7393 116.462 74.6067C119.157 73.4295 118.523 75.1378 118.016 76.6375C119.043 76.4364 118.631 75.4568 119.33 74.9983C119.565 75.5614 120.669 75.8031 120.363 76.3956C119.639 77.7988 121.566 77.2686 121.413 78.1896C120.498 78.393 119.902 77.3982 118.87 77.4788C118.987 78.2244 119.823 78.2782 120.057 78.7599C120.52 79.7071 119.515 79.6363 119.064 80.0908C119.962 78.5352 118.623 78.4074 117.887 78.1379C116.799 77.7396 115.981 78.5624 115.127 79.0867C116.15 79.976 114.76 81.1919 115.704 82.3151C116.802 83.6238 117.37 85.3771 118.219 87.0379C117.211 87.2104 117.296 86.3775 116.928 86.0688C116.171 85.4369 116.274 86.85 115.661 86.6385C115.205 85.8313 116.72 85.0952 115.788 84.221C114.901 85.72 114.901 85.72 113.221 84.7645C113.096 85.4607 114.043 85.7448 113.84 86.6015C112.104 85.8479 112.461 87.2733 112.243 88.1476C110.974 86.7209 110.641 84.9541 110.747 83.1685C111.008 78.613 111.944 74.3157 116.254 71.6719Z" fill="#B00F16"/>
<path d="M186.744 35.5615C188.345 34.9135 189.637 33.7666 190.383 32.3082C191.559 30.0019 193.566 29.8221 195.688 29.6837C198.535 29.5039 201.382 29.3512 204.226 29.1866C204.489 29.2541 204.618 29.425 204.604 29.6978C203.425 30.5299 202.057 30.9478 200.672 31.0463C196.729 31.3296 193.689 32.9089 191.431 36.2876C190.49 37.6986 189.445 39.5028 187.213 39.4147C187.522 38.0761 186.999 36.8351 186.744 35.5615Z" fill="#C31A35"/>
<path d="M143.577 44.0534C141.023 45.6195 140.494 48.192 140.596 50.8274C140.658 52.4406 140.13 52.6728 138.834 52.4227C138.01 51.8637 137.092 51.4091 136.383 50.7291C134.513 48.9413 134.634 46.8443 135.696 44.6824C135.801 44.03 136.33 43.9721 136.829 43.8756C137.701 43.7094 138.582 43.6912 139.454 43.8654C140.11 43.9974 140.641 43.959 141.102 43.3316C142.083 42.0068 142.985 42.4401 143.783 43.5799C143.856 43.8018 143.786 43.9594 143.577 44.0534Z" fill="#EA4351"/>
<path d="M31.5123 37.9143C31.378 37.8744 31.2394 37.8378 31.1051 37.7979C30.4797 37.5383 29.7424 37.8992 29.1521 37.4505C29.003 37.343 28.94 37.1959 28.9547 37.0159C37.4198 37.1984 45.8863 37.3694 54.3538 37.5637C58.8095 37.6653 63.2671 37.8135 67.7194 37.9417C68.5506 37.5422 69.3764 37.7145 70.1989 37.9754C74.0301 38.5873 77.9141 38.2773 81.7566 38.674C82.4481 38.7445 83.1405 38.8384 83.83 38.9241C85.181 39.0728 86.6726 38.5891 87.7814 39.814C86.6153 40.6051 85.2766 40.2955 84.0599 40.2177C76.7441 39.7527 69.4166 39.5377 62.0961 39.2036C57.5761 38.9973 53.0457 38.9677 48.5195 38.811C44.9524 38.6884 41.3807 38.7587 37.821 38.4513C35.7262 38.1869 33.5869 38.4354 31.5123 37.9143Z" fill="#6D3333"/>
<path d="M192.809 90.872C192.464 90.1909 193.748 89.1359 192.298 88.6963C192.06 88.6241 192.176 88.3717 192.342 88.2801C194.242 87.1896 193.324 84.9941 194.275 83.5032C192.779 83.9322 191.252 84.2607 191.422 86.3823C190.764 86.2541 190.755 84.6205 190.435 85.4473C189.717 87.3037 188.307 86.2618 187.045 86.9792C187.539 85.8414 190.416 85.2902 187.103 84.089C188.044 83.8308 188.321 84.1901 188.652 84.3589C189.125 84.5996 189.594 85.2769 190.15 84.6613C190.76 83.9867 190.011 83.6925 189.611 83.3332C189.235 82.9963 189.269 82.6911 189.669 82.4042C190.204 82.0182 190.204 82.3934 190.366 82.7966C190.895 84.1157 191.757 83.6542 192.696 83.2294C193.815 82.7226 193.909 81.8445 193.514 80.9715C192.603 78.9665 191.544 77.0283 190.298 74.5755C191.445 75.3371 192.206 75.6252 192.27 76.7279C192.306 77.3397 192.842 78.0446 193.312 77.1553C194.232 75.4206 195.011 75.8734 196.087 77.3612C195.456 75.6579 195.805 74.6878 197.359 74.2621C197.528 74.8596 197.4 75.7372 198.431 75.6566C196.87 80.12 195.316 84.5882 193.74 89.0497C193.506 89.6822 193.376 90.3893 192.809 90.872Z" fill="#AE151E"/>
<path d="M143.578 44.0531C143.597 43.9278 143.601 43.8045 143.597 43.6802C143.664 41.499 144.359 39.6706 146.42 38.5923C148.466 37.1912 150.448 37.0895 151.764 38.4214C152.87 39.5454 153.378 40.8464 152.436 42.354C151.337 42.8827 150.158 43.3434 150.195 44.8837C148.101 42.6195 147.095 42.4906 143.578 44.0531Z" fill="#E4E9EA"/>
<path d="M87.7197 39.7483C86.5279 38.9733 85.1005 39.3142 83.8293 38.9278C86.0619 38.5827 88.2873 38.9794 90.4931 39.13C104.561 40.0827 118.647 40.8559 132.649 42.6206C134.603 42.8674 136.585 42.9205 138.551 43.0645C138.938 43.1281 139.394 43.2545 139.385 43.6749C139.372 44.2458 138.851 44.0419 138.513 44.023C136.87 43.9231 135.213 44.0612 133.576 43.7804C126.437 43.5424 119.374 42.4163 112.256 41.9797C104.754 41.5186 97.2526 41.019 89.7483 40.546C88.9892 40.4903 88.1945 40.5346 87.7197 39.7483Z" fill="#713837"/>
<path d="M133.529 43.2254C135.172 43.422 136.812 43.7071 138.462 43.7847C139.704 43.8425 138.704 43.3351 138.56 43.0618C138.354 40.7617 139.168 38.8514 141.283 37.9616C142.965 37.254 144.868 37.1038 146.419 38.5965C145.007 40.0301 144.394 41.9074 143.597 43.6806C142.609 42.9156 141.627 42.132 141.29 44.2215C141.186 44.8663 140.79 44.7551 140.301 44.5821C139.216 44.1956 138.089 44.0787 136.951 44.3899C135.869 43.7291 134.633 44.7708 133.554 44.0834C133.388 43.7997 133.37 43.515 133.529 43.2254Z" fill="#D42E41"/>
<path d="M204.604 29.6978C204.478 29.5274 204.352 29.357 204.226 29.1866C204.081 28.4915 203.939 27.7969 203.793 27.1018C204.207 26.0121 204.682 24.93 205.878 24.5217C207.297 24.0328 208.692 24.0786 209.679 25.4084C210.58 26.6229 210.837 27.9779 209.936 29.3126C208.936 30.7936 207.48 31.0225 205.881 30.5064C205.419 30.3562 205.03 29.9751 204.604 29.6978Z" fill="#F2FAFA"/>
<path d="M133.53 43.9681C134.635 44.4112 135.926 43.299 136.952 44.3859C136.502 44.361 136.063 44.376 135.696 44.6862C132.901 44.7022 130.109 44.7225 127.317 44.7389C126.95 44.144 126.285 44.332 125.764 44.1357C126.07 43.3574 126.772 43.4022 127.38 43.4623C129.429 43.6554 131.526 43.2508 133.53 43.9681Z" fill="#713837"/>
<path d="M198.257 36.9663C199.32 37.8103 199.277 39.3369 200.276 40.2348C200.429 40.3737 200.296 40.6009 200.062 40.5525C199.893 40.5159 199.75 40.3589 199.6 40.259C198.867 39.2743 198.395 38.1904 198.257 36.9663Z" fill="#D2253E"/>
<path d="M195.202 55.5533C195.999 55.6485 196.845 55.568 197.51 56.1613C196.74 56.2204 195.867 55.7133 195.173 56.5399C195.639 57.2362 196.383 56.3849 196.9 56.9869C196.398 57.261 195.925 57.5193 195.469 57.7682C195.639 58.6056 196.794 58.1264 196.817 58.9958C196.187 59.49 195.723 58.3375 194.959 58.9079C196.3 59.6703 195.94 60.5424 194.867 61.5192C197.778 61.3474 195.548 63.0429 196.001 63.8421C195.215 63.7559 195.274 62.8502 194.538 62.4802C194.467 63.8601 194.276 65.1478 192.45 64.4913C192.301 66.0627 193.743 66.8803 193.938 68.2391C192.828 68.4531 193.109 67.1921 192.536 67.0396C191.73 66.9277 191.967 68.0637 191.123 67.978C191.359 67.137 191.588 66.326 191.826 65.4659C190.908 65.3517 190.985 66.4173 190.282 66.4653C189.627 66.5114 189.493 65.6283 188.702 65.7659C189.089 66.3865 189.441 66.9448 190.158 68.09C188.055 66.5829 188.408 68.6268 187.583 69.0696C187.142 67.2043 187.607 65.5485 188.144 63.9402C188.371 63.2606 188.759 62.5699 188.398 61.9602C188.072 61.4052 187.485 61.9551 187.03 62.0725C186.034 62.3316 186.118 63.1815 186.102 63.9338C186.096 64.1962 186.272 64.4618 186.366 64.7326C185.144 64.8243 186.101 63.0053 184.999 63.3093C184.03 63.5756 184.744 64.8327 183.968 65.5678C183.848 64.079 182.854 64.5705 181.936 64.7387C183.151 63.149 183.151 63.149 182.233 61.913C182.764 61.6232 183.052 62.1077 183.403 62.3023C183.874 62.562 184.404 62.8678 184.754 62.3272C185.124 61.7503 184.452 61.6436 184.104 61.43C184.05 61.3962 183.947 61.3487 183.954 61.3301C184.364 59.6753 184.358 57.7016 185.317 56.4631C186.294 55.1997 186.677 55.2976 184.9 54.214C188.171 54.0134 191.363 54.4762 194.499 55.3961C194.313 56.0152 194.477 56.7474 193.934 57.2563C194.472 56.7893 194.274 55.7434 195.202 55.5533Z" fill="#B30F15"/>
<path d="M170.327 72.1571C170.625 70.6699 169.075 69.8467 168.995 68.3473C169.797 68.3311 170.349 70.7053 171.234 68.324C171.484 69.2371 171.021 69.5007 170.822 69.8627C170.539 70.3614 170.7 70.7451 171.057 71.0525C171.704 71.6049 171.753 70.8064 172 70.5624C172.882 69.6896 172.864 69.6758 174.213 70.4316C174.838 69.7665 173.812 69.3062 173.995 68.7023C175.223 68.0388 175.906 68.9554 176.683 69.582C176.478 70.3921 174.022 70.1988 175.775 71.8443C176.118 72.1655 175.383 72.3216 175.099 72.4875C174.206 73.007 174.216 73.9598 174.332 74.7054C174.499 75.79 175.385 74.5076 175.851 74.964C174.256 76.8081 174.3 77.3899 175.664 79.6408C176.514 81.0464 177.118 82.603 177.858 84.1419C176.862 84.223 176.712 81.8833 175.382 83.3659C174.719 82.6025 176.038 81.9542 175.2 80.9719C175.554 82.6058 172.939 81.8318 173.688 83.8631C172.696 83.0009 171.784 82.3458 171.812 84.5465C171.651 83.2848 171.853 82.0063 169.734 82.6789C171.387 81.5847 171.923 80.483 172.719 77.1585C170.076 77.8472 169.645 78.3894 170.091 80.4951C169.55 80.6483 169.429 80.3122 169.381 79.8922C169.344 79.5937 169.448 79.1927 168.998 79.1406C168.636 79.0994 168.387 79.3586 168.309 79.6777C168.142 80.3339 168.16 81.2762 167.257 80.0769C167.2 80.004 166.443 80.463 165.966 80.6938C165.748 79.8002 166.331 79.6251 166.855 79.3924C167.985 78.8946 166.481 78.5413 166.823 78.0306C167.209 78.1599 167.611 78.322 168.028 78.4242C168.347 78.5025 168.689 78.4523 168.888 78.1598C169.144 77.7816 168.814 77.578 168.574 77.3934C168.146 77.0656 167.78 76.7725 168.085 76.1296C168.237 75.8081 168.922 75.4329 168.229 75.0605C167.736 74.7942 167.233 75.0178 166.888 75.4856C166.702 75.7371 166.546 76.0272 166.028 76.0556C165.617 74.8169 166.263 73.8566 166.917 72.8858C167.345 73.0241 167.327 73.4512 167.383 73.7792C167.475 74.313 167.724 74.6147 168.266 74.5467C168.891 74.4697 168.606 73.9585 168.603 73.6409C168.591 72.4324 169.025 71.8017 170.331 72.1614C170.142 73.1786 169.844 74.0544 170.751 75.0956C171.835 76.333 169.562 75.6635 169.66 76.5305C171.191 76.7209 171.849 76.0058 171.368 74.5844C171.093 73.7456 170.484 73.0469 170.327 72.1571Z" fill="#B30F15"/>
<path d="M154.208 96.0593C152.746 96.9954 153.195 94.9972 152.363 94.882C151.623 95.231 152.188 96.222 151.524 96.6809C150.921 96.7027 151.19 95.3474 150.221 95.7994C149.872 95.9648 149.77 95.5692 150.039 95.3976C151.523 94.4487 149.645 94.2151 149.661 93.5556C150.131 93.0068 150.431 93.6128 150.749 93.7683C151.212 93.9961 151.696 94.4238 152.13 93.9555C152.742 93.2966 151.806 93.1996 151.597 92.8255C151.48 92.6175 151.362 92.3823 151.341 92.1476C151.296 91.6662 152.524 91.3779 151.648 90.7971C150.887 90.2923 150.416 91.1583 149.818 91.4243C149.773 91.442 149.704 91.4025 149.498 91.3536C149.781 90.3792 150.697 89.5801 150.187 88.391C151.076 88.6138 150.716 89.1802 150.852 89.5453C151.062 90.0975 151.469 90.4305 152.027 90.2988C152.721 90.1336 152.36 89.4929 152.254 89.1935C151.666 87.5769 153.021 87.6603 153.894 87.2969C153.484 86.2711 152.696 85.4536 152.554 84.198C153.33 84.1166 153.92 85.9037 154.644 84.311C154.981 84.9679 154.496 85.2596 154.392 85.6568C154.275 86.0987 154.132 86.6302 154.592 86.877C155.216 87.2138 155.262 86.5581 155.469 86.2047C156.547 84.3503 157.1 86.0941 157.88 86.725C158.358 85.7129 157.641 85.0744 157.447 84.3579C157.852 83.9672 158.441 84.9225 158.772 84.1281C158.933 83.738 159.497 83.4329 159.443 84.0219C159.38 84.7452 160.864 84.5972 160.065 85.4881C159.553 86.0588 157.983 86.3974 159.494 87.5873C159.681 87.7343 159.217 87.9203 159.025 87.9738C158.361 88.1465 158.211 88.7275 157.945 89.2243C157.698 89.6849 157.428 90.2664 157.722 90.6705C158.086 91.1683 158.632 90.4819 159.328 90.6652C157.629 92.1676 157.814 93.5678 159.156 95.2549C160.17 96.5299 160.664 98.2161 161.541 100.031C159.924 98.8127 159.379 98.6597 158.71 99.0911C158.462 98.6541 158.927 98.4024 158.976 98.041C159.027 97.6876 159.391 97.3808 159.061 96.7944C158.171 97.6391 157.229 98.7753 156.12 96.3705C156.145 97.8746 157.099 98.295 157.239 99.3181C156.11 98.7793 155.526 99.2173 155.435 100.409C154.548 99.7069 155.29 99.1531 155.268 98.6165C155.222 97.5509 154.189 98.5829 153.838 98.1022C154.124 97.2326 155.46 97.507 155.46 96.6056C155.457 95.9438 154.649 96.2185 154.204 96.0626C154.627 94.9663 156.143 94.2573 155.395 92.7408C154.776 92.1222 154.057 91.8355 152.961 91.9971C153.721 92.9194 154.704 92.0746 155.323 92.6313C155.674 93.2358 155.167 93.548 154.844 93.8715C154.221 94.498 153.982 95.2033 154.208 96.0593Z" fill="#B40F16"/>
<path d="M141.824 80.9218C136.625 74.9755 137.008 68.1025 138.603 61.067C138.895 59.7726 139.652 58.6365 140.535 57.5975C141.438 56.5299 142.245 56.4137 143.142 57.5388C143.382 58.9999 142.904 60.4182 142.9 61.8838C142.886 67.4719 144.482 72.5214 147.543 77.1534C147.888 77.676 148.329 78.1719 148.206 78.88C147.172 80.4766 146.204 82.128 144.601 83.2594C143.168 83.0851 142.385 82.1366 141.824 80.9218Z" fill="#DB3146"/>
<path d="M148.206 78.8758C143.825 73.1628 141.838 66.7455 142.571 59.5447C142.642 58.8457 142.741 58.1462 143.142 57.5384C144.606 58.0531 146.013 58.8356 147.655 58.5446C147.304 63.6034 148.604 68.2988 150.779 72.8052C150.97 73.2003 151.123 73.6178 151.293 74.0257C150.332 75.6819 149.447 77.3899 148.206 78.8758Z" fill="#2E2B2C"/>
<path d="M129.66 78.693C131.463 78.1591 133.322 78.3322 135.16 78.263C137.047 80.1726 137.663 82.6825 138.399 85.1337C138.53 85.5679 138.395 86.0075 138.011 86.3234C134.616 86.435 131.48 85.7665 128.943 83.3039C128.572 82.8052 128.433 82.2425 128.795 81.7228C129.437 80.7967 129.458 79.724 129.66 78.693Z" fill="#2C2A29"/>
<path d="M138.012 86.3194C138.105 84.0795 136.875 82.2709 136.073 80.3221C135.788 79.629 135.466 78.9507 135.161 78.2628C135.428 78.1336 135.695 78.0082 135.963 77.879C137.058 79.0868 138.153 80.2984 139.249 81.5062C140.656 82.3234 142.05 83.1543 142.887 84.6318C141.553 86.0287 139.882 86.4592 138.012 86.3194Z" fill="#181716"/>
<path d="M142.887 84.6318C141.539 83.7446 140.172 82.886 139.249 81.5062C140.133 81.4266 141.173 82.0202 141.828 80.9218C142.753 81.6983 143.681 82.4791 144.606 83.2556C144.211 83.9377 143.76 84.5469 142.887 84.6318Z" fill="#E5E5E3"/>
<path d="M195.202 55.553C194.616 56.0333 194.914 57.0568 193.96 57.4836C193.903 56.6603 193.772 55.9438 194.489 55.4063C194.73 55.4557 194.968 55.5046 195.202 55.553Z" fill="#A20003"/>
<path d="M201.168 41.5837C202.223 42.4306 203.546 42.1541 204.738 42.43C205.422 42.5886 206.241 42.6324 205.576 43.6832C203.699 44.0957 201.949 44.0406 200.617 42.374C199.89 41.4673 200.517 41.526 201.168 41.5837Z" fill="#F88125"/>
<path d="M173.921 99.2883C173.861 98.9288 173.496 98.4772 173.875 98.2265C174.917 97.5321 174.959 96.636 174.618 95.5839C174.478 95.1526 174.354 94.6537 174.956 94.4848C175.384 94.364 175.933 94.3742 176.194 94.7625C176.655 95.4427 177.314 96.2055 177.313 96.9326C177.308 98.5877 175.988 96.6673 175.514 97.4941C175.559 98.3121 176.483 97.7888 176.86 98.3347C176.141 99.4174 175.063 99.4381 173.918 99.2802C173.914 99.2835 173.921 99.2883 173.921 99.2883Z" fill="#A20003"/>
<path d="M180.536 98.9503C179.026 97.7413 180.466 97.5181 181.172 97.0953C182.167 96.4995 182.973 97.2727 183.826 97.5684C184.118 97.6706 184.002 98.0197 183.824 98.2064C183.234 98.8101 182.592 99.3028 181.655 99.0934C181.287 99.0089 180.902 98.9919 180.525 98.945L180.536 98.9503Z" fill="#A20003"/>
<path d="M181.194 93.6208C182.703 93.7466 182.325 94.8214 182.022 95.5844C181.617 96.6017 180.427 97.2738 179.608 96.9824C178.893 96.7272 179.325 95.5508 179.855 94.8701C180.233 94.3832 181.093 94.4051 181.198 93.6213C181.198 93.6175 181.194 93.6208 181.194 93.6208Z" fill="#A20003"/>
<path d="M180.531 98.9462C180.814 99.5655 181.589 99.3098 181.963 99.751C182.409 100.271 183.087 100.92 182.535 101.532C181.979 102.147 181.049 101.912 180.531 101.283C179.983 100.623 179.628 99.801 179.194 99.0585C179.685 98.6939 180.116 98.9565 180.535 98.9505L180.531 98.9462Z" fill="#A20003"/>
<path d="M177.599 100.411C177.555 101.953 176.557 101.984 175.71 102.037C175.04 102.078 175.191 101.454 175.268 101.054C175.455 100.079 176.162 99.4666 177.062 99.4123C177.951 99.3565 177.589 100.182 177.599 100.411Z" fill="#A20003"/>
<path d="M178.839 99.7684C179.248 100.527 179.572 100.943 179.695 101.411C179.856 102.015 179.856 102.699 179.401 103.184C179.152 103.447 178.861 103.106 178.619 102.913C178.034 102.446 177.638 101.932 178.064 101.154C178.265 100.78 178.472 100.419 178.839 99.7684Z" fill="#A20003"/>
<path d="M28.4056 38.2281C28.3896 37.7967 28.3764 37.3734 28.8906 37.1898C29.6326 37.3827 30.511 37.0703 31.1052 37.7979C30.3889 39.1092 29.3145 38.1361 28.4056 38.2281Z" fill="#871516"/>
<path d="M173.775 34.5172C173.66 35.0096 173.403 35.4883 172.834 35.522C172.479 35.5436 172.371 35.1395 172.451 34.8051C172.556 34.3656 172.722 33.9298 173.262 33.8809C173.674 33.8393 173.802 34.1144 173.775 34.5172Z" fill="#685D49"/>
<path d="M117.627 75.0613C117.671 76.1383 117.676 76.9706 116.851 77.4792C116.264 77.8395 115.62 78.2622 114.925 78.0636C114.514 77.9467 114.787 77.4004 114.811 77.0514C114.863 76.2572 115.018 75.5414 116.034 75.4318C116.523 75.3843 117.001 75.2155 117.627 75.0613Z" fill="#A20003"/>
<path d="M113.585 80.7826C114.458 81.1968 114.502 81.8367 114.804 82.3036C115.184 82.8886 115.328 83.4675 114.916 84.0815C114.759 84.3135 114.471 84.417 114.265 84.2133C113.813 83.7703 113.325 83.3073 113.371 82.5973C113.399 82.0283 113.5 81.4683 113.585 80.7826Z" fill="#A20003"/>
<path d="M195.712 79.1051C194.943 79.6903 195.566 81.3036 194.625 81.0628C193.707 80.8248 193.304 79.4866 193.55 78.3218C193.679 77.7151 193.926 76.7245 194.512 76.9946C195.167 77.2928 195.717 78.189 195.712 79.1051Z" fill="#A20003"/>
<path d="M187.98 57.7229C187.98 58.0362 187.876 58.4024 188 58.6537C188.428 59.5039 188.612 60.227 187.711 60.939C186.695 61.7409 185.756 62.0148 184.74 60.9098C185.291 60.1853 186.006 59.5316 185.616 58.4114C185.456 57.9544 185 57.2324 185.684 56.8687C186.351 56.5107 187.028 56.7921 187.544 57.3746C187.666 57.5098 187.836 57.6082 187.98 57.7229Z" fill="#A20003"/>
<path d="M193.766 63.4286C193.736 64.1986 193.214 64.1994 192.693 64.0921C191.418 63.8329 191.038 62.6599 190.395 61.7599C190.336 61.679 190.517 61.307 190.532 61.3127C191.312 61.4832 192.103 61.6241 192.851 61.8874C193.541 62.1317 193.608 62.8364 193.766 63.4286Z" fill="#A20003"/>
<path d="M190.541 60.5595C191.097 59.7621 191.838 59.6493 192.433 59.3094C193.254 58.8428 193.852 59.598 194.519 59.8667C194.828 59.9903 194.878 60.3678 194.569 60.6466C193.99 61.1664 193.402 61.6581 192.539 61.3187C191.908 61.0739 191.276 60.8367 190.541 60.5595Z" fill="#A20003"/>
<path d="M187.983 57.7266C187.798 56.7015 187.887 55.7378 188.725 55.0025C188.92 54.8334 189.195 54.8946 189.378 55.1302C190.045 55.9907 190.245 56.9943 189.853 57.9668C188.994 60.1153 188.63 57.66 187.983 57.7266C187.98 57.7223 187.983 57.7266 187.983 57.7266Z" fill="#A20003"/>
<path d="M190.32 59.2244C190.965 58.2951 190.207 56.5566 192.095 56.3079C193.16 56.1696 193.448 56.2828 193.094 57.4496C192.665 58.8468 191.556 58.9913 190.32 59.2244Z" fill="#A20003"/>
<path d="M170.327 72.1576C171.078 73.3651 172.62 74.1293 171.792 76.1154C171.312 77.2741 170.535 77.2665 169.746 77.3927C169.335 77.4577 168.677 77.0586 168.732 76.462C168.853 75.1773 169.999 75.7879 170.7 75.5385C169.145 74.4786 169.036 73.4244 170.332 72.1504C170.331 72.1542 170.327 72.1576 170.327 72.1576Z" fill="#A20003"/>
<path d="M155.847 91.0407C154.028 91.387 153.177 90.5771 152.859 89.0599C152.74 88.4957 153.08 88.2208 153.616 88.2333C155.493 88.285 155.154 89.9836 155.847 91.0407Z" fill="#A20003"/>
<path d="M155.393 92.7327C156.536 94.0547 156.215 94.951 154.204 96.0664L154.209 96.0631C153.284 95.3485 153.407 94.6094 154.172 93.869C154.572 93.4817 154.99 93.1081 155.397 92.7293L155.393 92.7327Z" fill="#A20003"/>
<path d="M157.03 93.3809C157.517 94.1611 157.85 94.6899 158.178 95.222C158.668 96.0102 158.176 96.7923 157.659 96.9988C156.947 97.2816 156.864 96.366 156.724 95.869C156.519 95.124 156.679 94.3701 157.03 93.3809Z" fill="#A20003"/>
<path d="M155.398 92.7257C154.844 92.8541 154.295 93.0063 153.74 93.1114C152.944 93.26 152.399 92.5771 152.347 92.1181C152.282 91.5258 153.03 91.2939 153.636 91.3693C154.47 91.473 155.31 91.6277 155.393 92.729C155.393 92.7328 155.398 92.7257 155.398 92.7257Z" fill="#A20003"/>
</g>
<defs>
<clipPath id="clip0">
<rect width="210.857" height="96.7153" fill="white" transform="translate(12.7256) rotate(7.08957)"/>
</clipPath>
</defs>
</svg>
