<svg width="58" height="61" viewBox="0 0 58 61" fill="none" xmlns="http://www.w3.org/2000/svg">
<path d="M33.2993 52.8896C33.4223 54.6635 33.5017 56.2998 33.658 57.93C33.8478 59.8961 33.8795 59.9134 31.9823 60.2602C29.9838 60.6241 27.9917 60.6162 26.0062 60.1055C25.2713 59.9173 24.9597 59.5827 25.0346 58.7623C25.2213 56.6876 25.3205 54.6033 25.4594 52.4672C24.3531 52.6937 23.3294 52.9582 22.2887 53.1078C19.9978 53.4395 17.9618 52.7949 16.2324 51.2513C15.8314 50.893 15.5248 50.8397 15.0014 50.9571C14.0785 51.162 13.1178 51.2701 12.1716 51.2718C10.9946 51.2743 10.1438 50.5705 9.55062 49.6018C9.20506 49.0393 8.90787 48.8939 8.22963 49.082C5.61949 49.8014 3.3333 49.1436 1.46938 47.1431C1.08528 46.7314 0.8258 46.2033 0.502073 45.7167C2.30427 44.8452 4.02242 44.1234 5.63173 43.2064C7.21843 42.3019 8.69453 41.2023 10.2553 40.1636C9.04764 39.1452 7.97597 38.2421 6.73482 37.1957C10.3302 35.9043 13.2423 34.0311 15.9772 31.4784C13.6164 31.1826 11.7226 30.2727 10.0203 28.6474C13.5302 27.3711 16.4141 25.3177 19.052 22.5395C17.0709 22.42 15.3743 21.9415 13.8278 20.6472C17.3058 19.3288 20.0163 17.1021 22.328 14.2409C20.9681 13.8401 19.6626 13.4546 18.1816 13.018C23.7311 10.1968 26.315 5.23517 28.6195 0.32088C29.999 2.63301 31.3365 5.1049 32.8979 7.42563C34.4896 9.7938 36.5121 11.743 39.3991 12.6454C37.9733 13.5533 36.4235 13.6874 34.6913 13.774C37.2516 16.9013 40.0744 19.2557 43.8508 20.2385C43.1193 21.1475 41.2829 21.9273 38.6253 22.4667C39.3959 24.1325 43.4748 26.6765 47.8362 28.212C47.2902 29.2818 45.7687 30.228 42.0694 31.7701C44.7979 34.1398 47.8173 35.777 51.3458 36.6457C50.1702 38.0252 48.8485 39.0169 47.0042 39.5596C50.3689 42.2072 53.9129 43.9908 57.9442 44.9317C57.6804 45.432 57.4681 45.8432 57.2505 46.251C55.9196 48.765 54.2595 49.518 51.531 48.7201C50.7414 48.4881 50.3159 48.5973 49.8007 49.288C47.7258 52.0581 45.4101 52.6751 42.1862 51.3658C41.4659 51.0729 41.0465 51.1077 40.485 51.7317C38.8042 53.6035 36.6942 54.0023 34.3422 53.2497C34.0403 53.1557 33.747 53.0457 33.2993 52.8896Z" fill="#407248"/>
</svg>
